# xmcd
#
# Track frame offsets: 
#        150
#        27691
#        49945
#        70603
#        100449
#        124744
#        148056
#        170895
#        196081
#
# Disc length: 2953 seconds
#
# Revision: 0
# Processed by: cddbd v1.5.2PL0 Copyright (c) Steve Scherf et al.
# Submitted via: ExactAudioCopy v1.3
#
DISCID=880b8709
DTITLE=Seth Yacovone Band - Shovel Down
DYEAR=2016
DGENRE=Blues Rock
TTITLE0=Playing Patterns
TTITLE1=Cavemen Guerrilla
TTITLE2=Falling On Deaf Ears
TTITLE3=A Question Mark To Answer
TTITLE4=The Snake
TTITLE5=The Violent Stain Of My Bleeding Heart
TTITLE6=Mistake
TTITLE7=Mr. Reed
TTITLE8=Just Open The Door
EXTD=
EXTT0=
EXTT1=
EXTT2=
EXTT3=
EXTT4=
EXTT5=
EXTT6=
EXTT7=
EXTT8=
PLAYORDER=
